# xmcd CD database file
#
# Track frame offsets:
#	150
#	22179
#	47889
#	73235
#	98910
#	121117
#	144561
#	170155
#	195246
#	219449
#	243590
#	270421
#
# Disc length: 3902 seconds
#
# Revision: 6
# Processed by: cddbd v1.5.2PL0 Copyright (c) Steve Scherf et al.
# Submitted via: CDex 1.51
#
DISCID=b20f3c0c
DTITLE=Ken Follett - Nacht über den Wassern
DYEAR=2000
DGENRE=Hörbuch
TTITLE0=101 Nacht über den Wassern
TTITLE1=102 Nacht über den Wassern
TTITLE2=103 Nacht über den Wassern
TTITLE3=104 Nacht über den Wassern
TTITLE4=105 Nacht über den Wassern
TTITLE5=106 Nacht über den Wassern
TTITLE6=107 Nacht über den Wassern
TTITLE7=108 Nacht über den Wassern
TTITLE8=109 Nacht über den Wassern
TTITLE9=110 Nacht über den Wassern
TTITLE10=111 Nacht über den Wassern
TTITLE11=112 Nacht über den Wassern
EXTD=YEAR: 2000
EXTT0=
EXTT1=
EXTT2=
EXTT3=
EXTT4=
EXTT5=
EXTT6=
EXTT7=
EXTT8=
EXTT9=
EXTT10=
EXTT11=
PLAYORDER=
